<?xml version="1.0" encoding="UTF-8" standalone="no"?>
<!DOCTYPE svg PUBLIC "-//W3C//DTD SVG 20010904//EN"
              "http://www.w3.org/TR/2001/REC-SVG-20010904/DTD/svg10.dtd">

<svg xmlns="http://www.w3.org/2000/svg"
     width="349.563mm" height="153.48mm"
     viewBox="0 0 1321 580">
  <path id="Neimenovano"
        fill="none" stroke="black" stroke-width="1"
        d="M 235.89,95.96
           C 235.89,95.96 234.00,95.98 234.00,95.98
             234.00,95.98 207.00,126.00 207.00,126.00
             207.00,126.00 183.91,152.00 183.91,152.00
             183.91,152.00 159.83,180.83 159.83,180.83
             159.83,180.83 148.96,194.74 148.96,194.74
             148.96,194.74 132.78,215.83 132.78,215.83
             132.78,215.83 116.13,240.87 116.13,240.87
             116.13,240.87 99.96,267.83 99.96,267.83
             99.96,267.83 84.87,298.00 84.87,298.00
             84.87,298.00 82.91,303.00 82.91,303.00
             82.91,303.00 79.00,313.00 79.00,313.00
             79.00,313.00 76.87,318.30 76.87,318.30
             76.87,318.30 72.91,329.17 72.96,329.30
             73.00,329.43 71.09,336.13 71.09,336.13
             71.09,336.13 67.09,350.96 67.17,351.00
             67.26,351.04 64.00,365.13 64.00,365.13
             64.00,365.13 61.96,380.04 61.96,380.04
             61.96,380.04 62.00,413.74 62.00,413.74
             62.00,413.74 64.09,426.61 64.09,426.61
             64.09,426.61 67.04,437.78 67.04,437.78
             67.04,437.78 71.09,449.00 71.09,449.00
             71.09,449.00 75.13,457.00 75.13,457.00
             75.13,457.00 80.96,466.96 80.96,466.96
             80.96,466.96 88.09,476.04 88.09,476.04
             88.09,476.04 97.13,486.04 97.13,486.04
             97.13,486.04 107.09,495.00 107.09,495.00
             107.09,495.00 111.00,498.04 111.00,498.04
             111.00,498.04 116.83,502.09 116.83,502.09
             116.83,502.09 123.30,506.04 123.30,506.04
             123.30,506.04 134.26,511.04 134.26,511.04
             134.26,511.04 143.87,514.96 143.87,514.96
             143.87,514.96 153.74,518.13 153.74,518.13
             153.74,518.13 161.04,520.00 161.04,520.00
             161.04,520.00 172.09,521.96 172.09,521.96
             172.09,521.96 179.30,522.91 179.30,522.91
             179.30,522.91 229.00,523.13 229.00,523.13
             229.00,523.13 238.04,522.00 238.04,522.00
             238.04,522.00 245.30,521.00 245.30,521.00
             245.30,521.00 257.13,518.91 257.13,518.91
             257.13,518.91 266.96,516.96 266.96,516.96
             266.96,516.96 277.00,514.91 277.00,514.91
             277.00,514.91 296.96,509.96 296.96,509.96
             296.96,509.96 314.13,504.83 314.13,504.83
             314.13,504.83 331.70,499.04 331.70,499.04
             331.70,499.04 346.61,494.00 346.65,494.00
             346.70,494.00 357.04,490.00 357.04,490.00
             357.04,490.00 373.09,484.09 373.09,484.09
             373.09,484.09 387.00,477.87 387.00,477.87
             387.00,477.87 398.48,472.91 398.48,472.91
             398.48,472.91 427.06,460.91 427.06,460.91
             427.06,460.91 500.19,429.69 500.19,429.69
             500.19,429.69 579.19,395.94 579.19,395.94
             579.19,395.94 1122.17,163.91 1122.17,163.91
             1122.17,163.91 1255.03,107.00 1255.03,107.00
             1255.03,107.00 1260.19,104.78 1260.19,104.78
             1260.19,104.78 1262.12,103.03 1262.12,103.03
             1262.12,103.03 1256.25,103.94 1256.25,103.94
             1256.25,103.94 936.17,188.78 936.17,188.78
             936.17,188.78 551.98,290.87 551.98,290.87
             551.98,290.87 412.31,327.94 412.31,327.94
             412.31,327.94 401.19,330.88 401.19,330.88
             401.19,330.88 386.03,334.97 386.03,335.00
             386.03,335.03 372.31,338.03 372.31,338.03
             372.31,338.03 367.06,339.09 367.06,339.09
             367.06,339.09 361.88,339.97 361.88,339.97
             361.88,339.97 354.91,340.88 354.91,340.88
             354.91,340.88 347.00,342.00 347.00,342.00
             347.00,342.00 338.72,342.94 338.72,342.94
             338.72,342.94 324.91,345.00 324.91,345.00
             324.91,345.00 298.31,345.09 298.31,345.09
             298.31,345.09 286.75,343.06 286.75,343.06
             286.75,343.06 269.78,340.00 269.78,340.03
             269.78,340.06 262.91,338.16 262.91,338.16
             262.91,338.16 255.75,336.12 255.75,336.12
             255.75,336.12 248.91,333.03 248.91,333.03
             248.91,333.03 245.03,331.03 245.03,331.03
             245.03,331.03 239.81,327.97 239.81,327.97
             239.81,327.97 231.84,323.09 231.84,323.09
             231.84,323.09 228.84,321.00 228.84,321.00
             228.84,321.00 224.91,317.03 224.91,317.03
             224.91,317.03 220.78,312.91 220.78,312.91
             220.78,312.91 213.91,306.03 213.91,306.03
             213.91,306.03 210.88,301.94 210.88,301.94
             210.88,301.94 207.84,297.91 207.84,297.91
             207.84,297.91 204.97,292.94 204.97,292.94
             204.97,292.94 202.88,289.03 202.88,289.03
             202.88,289.03 200.00,283.97 200.00,283.97
             200.00,283.97 197.88,279.06 197.88,279.03
             197.88,279.00 194.88,269.97 194.88,269.97
             194.88,269.97 193.03,260.94 193.03,260.94
             193.03,260.94 190.04,246.13 190.04,246.13
             190.04,246.13 189.96,220.74 189.96,220.74
             189.96,220.74 192.00,210.96 192.00,210.96
             192.00,210.96 194.00,199.91 194.00,199.91
             194.00,199.91 197.04,185.87 197.04,185.87
             197.04,185.87 198.96,178.74 198.96,178.74
             198.96,178.74 201.09,171.91 201.09,171.91
             201.09,171.91 203.04,165.70 203.04,165.70
             203.04,165.70 205.91,157.87 205.91,157.87
             205.91,157.87 208.96,149.96 208.96,149.96
             208.96,149.96 212.83,140.78 212.83,140.78
             212.83,140.78 217.04,131.78 217.04,131.78
             217.04,131.78 220.09,125.91 220.09,125.91
             220.09,125.91 223.91,117.91 223.91,117.91
             223.91,117.91 226.94,111.98 226.94,111.98
             226.94,111.98 229.97,106.94 229.97,106.94
             229.97,106.94 232.98,101.92 232.98,101.92
             232.98,101.92 235.02,98.84 235.02,98.84
             235.02,98.84 235.92,95.95 235.92,95.95" />
</svg>
